<?xml version="1.0" encoding="utf-8"?>
<!-- Generator: Adobe Illustrator 24.1.2, SVG Export Plug-In . SVG Version: 6.00 Build 0)  -->
<svg version="1.1"
	 id="svg2" xmlns:cc="http://creativecommons.org/ns#" xmlns:dc="http://purl.org/dc/elements/1.1/" xmlns:inkscape="http://www.inkscape.org/namespaces/inkscape" xmlns:rdf="http://www.w3.org/1999/02/22-rdf-syntax-ns#" xmlns:sodipodi="http://sodipodi.sourceforge.net/DTD/sodipodi-0.dtd" xmlns:svg="http://www.w3.org/2000/svg"
	 xmlns="http://www.w3.org/2000/svg" xmlns:xlink="http://www.w3.org/1999/xlink" x="0px" y="0px" viewBox="0 0 566 143"
	 style="enable-background:new 0 0 566 143;" xml:space="preserve">
<sodipodi:namedview  bordercolor="#666666" borderopacity="1" gridtolerance="10" guidetolerance="10" id="namedview6" inkscape:current-layer="svg2" inkscape:cx="372.04724" inkscape:cy="464.86763" inkscape:pageopacity="0" inkscape:pageshadow="2" inkscape:window-height="719" inkscape:window-maximized="1" inkscape:window-width="1366" inkscape:window-x="0" inkscape:window-y="25" inkscape:zoom="0.31714784" objecttolerance="10" pagecolor="#ffffff" showgrid="false" units="px">
	</sodipodi:namedview>
<g>
	<path d="M153.8,136.8h-25.7v-92c0-1.8-0.3-3.5-1-5c-0.7-1.6-1.6-2.9-2.8-4.1c-1.2-1.2-2.5-2.1-4.1-2.7c-1.6-0.7-3.2-1-5-1
		c-1.8,0-3.5,0.3-5,1c-1.6,0.7-2.9,1.6-4.1,2.7s-2.1,2.5-2.7,4.1c-0.7,1.6-1,3.2-1,5v92H76.5v-92c0-1.8-0.3-3.5-1-5
		c-0.7-1.6-1.6-2.9-2.7-4.1c-1.2-1.2-2.5-2.1-4.1-2.7c-1.6-0.7-3.2-1-5-1c-1.8,0-3.5,0.3-5,1c-1.6,0.7-2.9,1.6-4.1,2.7
		s-2.1,2.5-2.7,4.1c-0.7,1.6-1,3.2-1,5v92H25v-92c0-5.3,1-10.4,3-15.1c2-4.7,4.8-8.8,8.3-12.3c3.5-3.5,7.6-6.3,12.3-8.3
		c4.7-2,9.7-3,15.1-3c4.8,0,9.4,0.9,13.8,2.6c4.4,1.7,8.4,4.2,12,7.4c3.5-3.2,7.5-5.7,11.9-7.4c4.4-1.7,9-2.6,13.8-2.6
		c5.3,0,10.4,1,15.1,3c4.7,2,8.8,4.8,12.3,8.3c3.5,3.5,6.3,7.6,8.3,12.3c2,4.7,3,9.7,3,15.1V136.8z"/>
	<path d="M266.1,87.8c0,7.2-1.3,13.9-3.9,20.1c-2.6,6.2-6.1,11.6-10.5,16.1c-4.4,4.5-9.6,8.1-15.6,10.7c-6,2.6-12.4,3.9-19.2,3.9
		c-6.8,0-13.1-1.3-19.1-3.9c-6-2.6-11.2-6.2-15.6-10.7c-4.5-4.5-8-9.9-10.6-16.1c-2.6-6.2-3.9-12.9-3.9-20.1
		c0-7.3,1.3-14.1,3.9-20.3c2.6-6.2,6.1-11.6,10.6-16.1c4.5-4.5,9.7-8.1,15.6-10.7c6-2.6,12.3-3.9,19.1-3.9c6.8,0,13.2,1.2,19.2,3.6
		c6,2.4,11.2,5.9,15.6,10.3c4.4,4.5,7.9,9.8,10.5,16.1C264.8,73.2,266.1,80.2,266.1,87.8z M241.4,87.8c0-4-0.6-7.5-1.9-10.7
		c-1.3-3.2-3-6-5.3-8.3c-2.2-2.3-4.8-4.1-7.8-5.3c-3-1.2-6.1-1.8-9.5-1.8c-3.4,0-6.5,0.6-9.5,1.8c-3,1.2-5.5,3-7.7,5.3
		c-2.2,2.3-3.9,5.1-5.2,8.3c-1.3,3.2-1.9,6.8-1.9,10.7c0,3.7,0.6,7.2,1.9,10.3c1.3,3.2,3,5.9,5.2,8.3c2.2,2.3,4.8,4.2,7.7,5.5
		c3,1.3,6.1,2,9.5,2c3.4,0,6.5-0.6,9.5-1.9c3-1.3,5.6-3,7.8-5.3c2.2-2.3,4-5,5.3-8.3C240.7,95.3,241.4,91.7,241.4,87.8z"/>
	<path d="M410.2,136.8h-25.7v-92c0-1.8-0.3-3.5-1-5c-0.7-1.6-1.6-2.9-2.8-4.1s-2.5-2.1-4.1-2.7c-1.6-0.7-3.2-1-5-1
		c-1.8,0-3.5,0.3-5,1c-1.6,0.7-2.9,1.6-4.1,2.7c-1.2,1.2-2.1,2.5-2.7,4.1c-0.7,1.6-1,3.2-1,5v92h-25.8v-92c0-1.8-0.3-3.5-1-5
		c-0.7-1.6-1.6-2.9-2.7-4.1c-1.2-1.2-2.5-2.1-4.1-2.7c-1.6-0.7-3.2-1-5-1c-1.8,0-3.5,0.3-5,1c-1.6,0.7-2.9,1.6-4.1,2.7
		c-1.2,1.2-2.1,2.5-2.7,4.1c-0.7,1.6-1,3.2-1,5v92h-25.8v-92c0-5.3,1-10.4,3-15.1c2-4.7,4.8-8.8,8.3-12.3c3.5-3.5,7.6-6.3,12.3-8.3
		c4.7-2,9.7-3,15.1-3c4.8,0,9.4,0.9,13.8,2.6c4.4,1.7,8.4,4.2,12,7.4c3.5-3.2,7.5-5.7,11.9-7.4c4.4-1.7,9-2.6,13.8-2.6
		c5.3,0,10.3,1,15.1,3c4.7,2,8.8,4.8,12.3,8.3c3.5,3.5,6.3,7.6,8.3,12.3c2,4.7,3,9.7,3,15.1V136.8z"/>
	<path d="M534.8,136.8h-25.8V111h-51.6v25.8h-25.7V59.5c0-7.1,1.3-13.8,4-20.1c2.7-6.3,6.4-11.7,11-16.4c4.6-4.7,10.1-8.4,16.4-11.1
		c6.3-2.7,13-4,20.1-4c7.1,0,13.8,1.3,20.1,4c6.3,2.7,11.7,6.4,16.4,11.1c4.7,4.7,8.4,10.1,11.1,16.4c2.7,6.3,4,13,4,20.1V136.8z
		 M509.1,85.3V59.5c0-3.5-0.7-6.9-2-10c-1.3-3.1-3.2-5.9-5.5-8.2c-2.3-2.3-5.1-4.2-8.2-5.5c-3.1-1.3-6.5-2-10-2c-3.5,0-6.9,0.7-10,2
		c-3.1,1.3-5.9,3.2-8.2,5.5c-2.3,2.3-4.2,5.1-5.5,8.2c-1.3,3.1-2,6.5-2,10v25.8H509.1z"/>
</g>
</svg>
